<svg width="18" height="18" viewBox="0 0 18 18" fill="none" xmlns="http://www.w3.org/2000/svg">
<path d="M9 0C4.05 0 0 4.05 0 9C0 13.95 4.05 18 9 18C13.95 18 18 13.95 18 9C18 4.05 13.95 0 9 0ZM13.1625 12.9375C13.05 13.1625 12.6 13.275 12.375 13.1625C10.0125 11.8125 7.0875 11.475 4.5 12.2625C4.1625 12.2625 3.9375 12.15 3.825 11.8125C3.825 11.5875 3.9375 11.25 4.275 11.1375C7.2 10.2375 10.35 10.6875 13.05 12.15C13.1625 12.375 13.275 12.7125 13.1625 12.9375ZM14.2875 10.575C14.175 10.575 14.175 10.575 14.2875 10.575C14.0625 10.9125 13.6125 11.025 13.275 10.8C10.575 9.225 7.3125 8.8875 4.275 9.7875C3.9375 9.9 3.4875 9.675 3.375 9.3375C3.2625 8.8875 3.4875 8.55 3.825 8.325C7.2 7.3125 10.9125 7.7625 13.95 9.5625C14.2875 9.7875 14.4 10.2375 14.2875 10.575ZM14.2875 7.9875C11.3625 6.3 6.6375 6.075 3.825 6.975C3.375 7.0875 2.925 6.8625 2.8125 6.4125C2.7 5.9625 2.925 5.5125 3.375 5.2875C6.525 4.3875 11.8125 4.5 15.1875 6.525C15.6375 6.75 15.75 7.3125 15.525 7.65C15.1875 8.1 14.7375 8.2125 14.2875 7.9875Z" fill="#B4B4B4"/>
</svg>
