<svg width="24" height="24" viewBox="0 0 24 24" fill="none" xmlns="http://www.w3.org/2000/svg">
<path fill-rule="evenodd" clip-rule="evenodd" d="M20.2605 18.486C21.6952 16.6582 22.483 14.4062 22.5007 12.0826C22.5183 9.75911 21.7648 7.49536 20.358 5.646C19.3202 4.28062 17.9637 3.19025 16.4071 2.4702C14.8506 1.75015 13.1413 1.42233 11.4288 1.51542C9.71634 1.6085 8.0527 2.11965 6.58336 3.00417C5.11403 3.8887 3.88372 5.11968 3 6.5895V3H1.5V8.25L2.25 9H7.5V7.5H4.2165C5.21855 5.76767 6.76872 4.41816 8.62256 3.66427C10.4764 2.91038 12.5284 2.79501 14.4551 3.33633C16.3818 3.87766 18.0734 5.0449 19.2634 6.65398C20.4533 8.26307 21.0738 10.2225 21.027 12.2232C20.9802 14.2239 20.2687 16.1521 19.0048 17.7038C17.741 19.2555 15.9966 20.3423 14.0467 20.7929C12.0968 21.2436 10.0524 21.0324 8.23585 20.1926C6.4193 19.3528 4.93394 17.9323 4.014 16.155L2.6835 16.848C3.49369 18.4064 4.68186 19.7366 6.13922 20.7169C7.59659 21.6972 9.27659 22.2963 11.0254 22.4593C12.7742 22.6222 14.536 22.3439 16.1494 21.6498C17.7628 20.9556 19.1763 19.8678 20.2605 18.486ZM15.219 17.031L16.281 15.9705L12 11.688V6H10.5V12L10.719 12.531L15.219 17.031Z" fill="white"/>
</svg>
